# xmcd CD database file
#
# Track frame offsets:
#	150
#	31975
#	54147
#	77900
#	112227
#	145052
#	165047
#	187412
#	227520
#
# Disc length: 3309 seconds
#
# Revision: 0
# Processed by: cddbd v1.4PL0 Copyright (c) Steve Scherf et al.
# Submitted via: CDex 1.50Beta6
#
DISCID=6d0ceb09
DTITLE=Oscar Peterson - Europe Live
DYEAR=1965
DGENRE=Jazz
TTITLE0=Con Alma
TTITLE1=Tangerine
TTITLE2=Like Someone in Love
TTITLE3=Satin Doll
TTITLE4=Reunion Blues
TTITLE5=The Lamp is Low
TTITLE6=Someday My Prince Will Come
TTITLE7=Waltz for Debby
TTITLE8=Oscar's Bubble
EXTD=YEAR: 1965
EXTT0=
EXTT1=
EXTT2=
EXTT3=
EXTT4=
EXTT5=
EXTT6=
EXTT7=
EXTT8=
PLAYORDER=
